<svg id="Ebene_1" data-name="Ebene 1" xmlns="http://www.w3.org/2000/svg" viewBox="0 0 1123.37 267.8"><defs><style>.cls-1{fill:#010101;}.cls-2{fill:#f5f5f5;}</style></defs><path d="M312.47,259.6c-44.46,0-84.76-.25-125.05.2-8.34.1-11.82-4.75-15.89-10.16-15.65-20.77-31.41-41.45-50.66-66.82,0,24.8-.52,44,.21,63.22.4,10.4-2.47,14.08-13.45,13.81-30.4-.73-60.85-.55-91.26-.07-9.49.15-12.93-2.58-12.88-12.5q.54-103.4,0-206.81c0-8.74,2.43-11.78,11.4-11.65,31.77.45,63.56.53,95.33,0,9.66-.17,10.9,4,10.78,12-.38,24.25-.14,48.5-.14,78.58,18.36-29,34-53.49,49.3-78.2,4.4-7.13,8.11-12.65,18.33-12.49,41.73.66,83.47.28,129.22.28-30,36.82-57.18,71.61-86.1,104.91-9.89,11.4-8.59,17.75.41,28.22C258.67,193.11,284.14,225.08,312.47,259.6Z"/><path d="M944.29,67.31v32.86c17.79-19.29,35.92-33,59.55-36.82,25.58-4.11,50.78-4.15,75.46,5.07,27.85,10.41,38.73,32.76,39.56,60.05,1.18,39.12,0,78.31.55,117.46.14,10.33-2.49,14.2-13.48,13.91q-41.51-1.09-83.06,0c-10.76.28-13.88-3.13-13.62-13.68.65-26.31.72-52.67,0-79-.63-22.85-9.63-30.49-31.43-29.54-17,.74-26,8.55-25.81,26.37.33,27-.44,54,.3,81,.32,11.52-3.26,15.08-14.83,14.84-31.05-.66-62.12-.07-93.19,0-3.64-3.09-2.72-7.36-2.72-11.28,0-56.53.32-113.07-.31-169.6-.14-12.63,3.87-16.23,16.15-15.81,24.88.85,49.81.12,74.72.39C936.29,63.62,941.85,60.94,944.29,67.31Z"/><path d="M706.85,197.55c-7.16,17.26-13.15,31.94-19.36,46.54-2,4.6-5.55,7-10.73,8.13-54.43,12-109.24,19.24-164.56,7.9-45.49-9.32-68-34-73.56-76.6-6.29-48.6,12.77-90.1,51.39-109.65,37.61-19.05,78.07-18.6,118.7-15.31,9.39.76,18.89,1.72,28,4,54,13.37,81.53,57.3,72.62,113.3-1.77,11.14-8.7,8.29-14.7,8.32-41.25.21-82.5,0-123.75.32-5.15,0-13.18-4-15.08,4.86-1.6,7.52,3.52,13.16,9.41,16.6,7.61,4.44,16.29,5.7,25.26,6.14,32,1.57,63-4.93,94-11C691,199.8,697.51,199,706.85,197.55Z"/><path class="cls-1" d="M323.2,138.49c0-35.78.29-71.55-.2-107.32-.14-10.15,2.29-14.29,13.39-14,28.34.74,56.72.68,85.07,0,10.39-.25,12.15,3.95,12.12,13.06q-.43,108.33,0,216.65c0,9.25-2,13.17-12.24,12.93-28.34-.64-56.72-.73-85.06,0-11.23.3-13.41-4-13.27-14.07C323.5,210,323.21,174.26,323.2,138.49Z"/><path d="M721.11,161.33c0-27.68.53-55.38-.26-83-.32-11.06,3.35-13.84,13.73-12.75a391.22,391.22,0,0,0,80.89.06c10.69-1.09,15.55.93,15.39,13.54q-1,83,0,166.07c.12,11.77-3.69,15-15,14.63-26.32-.74-52.7-.89-79,.05-12.3.44-16.46-2.71-16-15.53C721.79,216.71,721.11,189,721.11,161.33Z"/><path class="cls-1" d="M774,46.22c-9.42,0-19-1-28.23.22C727.09,49,723.6,40.55,723.55,23.57c-.06-16.57,5.73-20.91,21-20.2a615.55,615.55,0,0,0,64.58-.05c19.08-1.14,17.3,10.43,18,23.1.81,14.46-3.08,21.51-18.88,20C797,45.34,785.44,46.21,774,46.22Z"/><path class="cls-2" d="M584.4,106.25c10.76.11,19.07,2.52,25.79,8.52,5.28,4.71,7.87,11.26,6.24,18.18-2.11,9-9.93,4.45-15.08,4.72-12.69.67-25.45-.17-38.16.32-16.67.64-14-7.46-8.17-17.1C562.11,109.15,573.88,107.12,584.4,106.25Z"/></svg>