<svg id="Ebene_1" data-name="Ebene 1" xmlns="http://www.w3.org/2000/svg" viewBox="0 0 438 436"><path d="M219,2.13c-118.72,0-215,96.24-215,215s96.24,215,215,215,215-96.24,215-215S337.68,2.13,219,2.13ZM216.5,43.22c25.22,0,45,14.86,45,33.81,0,18.44-19.77,33.8-45,33.8-24.53,0-45-15.37-45-33.81C171.51,58.07,192,43.22,216.5,43.22Zm94.72,317.57c0,2.56-2.72,4.61-6.81,4.6l-162.91.51c-4.09,0-6.14-1.54-6.14-5.13v-5.12c.69-3.58,2-5.12,7.5-5.12,33.4,0,43.63-2,43.63-61.46V215.31c0-37.9-3.41-42.51-33.4-42.51H142.88c-4.09,0-5.46-1-5.46-4.61v-5.12c0-4.61,2.05-5.12,6.82-5.12H177c22.49,0,38.17-1,49.76-1.53,11.58-1,19.76-1.54,25.9-1.54,7.5,0,8.86,1,8.86,5.64,0,8.7-3.41,29.7-3.41,60.43v68.13c0,42.51,0,47.63,1.36,58.38,13.63,2.57,32.72,3.08,45,3.08,4.77,0,6.81,1,6.81,4.61Z"/></svg>